HIERARCHY
ROOT hips
{
	OFFSET 0.000000 104.274902 0.000000
	CHANNELS 6 Xposition Yposition Zposition Xrotation Yrotation Zrotation
	JOINT spine
	{
		OFFSET 0.000000 10.181549 0.131524
		CHANNELS 6 Xposition Yposition Zposition Xrotation Yrotation Zrotation
		JOINT chest
		{
			OFFSET 0.000000 9.893990 -1.470706
			CHANNELS 3 Xrotation Yrotation Zrotation
			JOINT upperChest
			{
				OFFSET 0.000000 9.220787 -1.370637
				CHANNELS 3 Xrotation Yrotation Zrotation
				JOINT neck
				{
					OFFSET 0.000000 16.740372 -2.049022
					CHANNELS 6 Xposition Yposition Zposition Xrotation Yrotation Zrotation
					JOINT head
					{
						OFFSET 0.000000 9.617859 1.684976
						CHANNELS 6 Xposition Yposition Zposition Xrotation Yrotation Zrotation
						JOINT headEnd
						{
							OFFSET 0.000000 22.037384 7.501072
							CHANNELS 6 Xposition Yposition Zposition Xrotation Yrotation Zrotation
							End Site
							{
								OFFSET 0.000000 23.106567 -2.828246
							}
						}
					}
				}
				JOINT rightShoulder
				{
					OFFSET -4.570000 11.014877 -2.160840
					CHANNELS 6 Xposition Yposition Zposition Xrotation Yrotation Zrotation
					JOINT rightUpperArm
					{
						OFFSET -10.592867 -0.524796 -2.232105
						CHANNELS 3 Xrotation Yrotation Zrotation
						JOINT rightLowerArm
						{
							OFFSET -27.841497 0.000000 -0.000002
							CHANNELS 3 Xrotation Yrotation Zrotation
							JOINT rightHand
							{
								OFFSET -28.328812 0.000000 -0.000001
								CHANNELS 3 Xrotation Yrotation Zrotation
								JOINT rightThumbProximal
								{
									OFFSET -2.464798 -1.573990 2.681911
									CHANNELS 6 Xposition Yposition Zposition Xrotation Yrotation Zrotation
									JOINT rightThumbIntermediate
									{
										OFFSET -3.244781 -1.873383 1.873376
										CHANNELS 3 Xrotation Yrotation Zrotation
										JOINT rightThumbDistal
										{
											OFFSET -2.646263 -1.527817 1.527818
											CHANNELS 6 Xposition Yposition Zposition Xrotation Yrotation Zrotation
											JOINT rightHandThumb4
											{
												OFFSET -1.994591 -1.151581 1.151575
												CHANNELS 6 Xposition Yposition Zposition Xrotation Yrotation Zrotation
												End Site
												{
													OFFSET -1.860176 -1.142715 1.365483
												}
											}
										}
									}
								}
								JOINT rightIndexProximal
								{
									OFFSET -9.108299 -0.517883 2.259803
									CHANNELS 6 Xposition Yposition Zposition Xrotation Yrotation Zrotation
									JOINT rightIndexIntermediate
									{
										OFFSET -3.699997 0.000000 0.000000
										CHANNELS 3 Xrotation Yrotation Zrotation
										JOINT rightIndexDistal
										{
											OFFSET -2.850006 0.000000 0.000000
											CHANNELS 3 Xrotation Yrotation Zrotation
											JOINT rightHandIndex4
											{
												OFFSET -2.772194 0.000000 0.000000
												CHANNELS 3 Xrotation Yrotation Zrotation
												End Site
												{
													OFFSET -2.772202 0.000000 -0.000484
												}
											}
										}
									}
								}
								JOINT rightMiddleProximal
								{
									OFFSET -9.532501 0.000000 -0.000000
									CHANNELS 6 Xposition Yposition Zposition Xrotation Yrotation Zrotation
									JOINT rightMiddleIntermediate
									{
										OFFSET -3.699997 0.000000 0.000000
										CHANNELS 3 Xrotation Yrotation Zrotation
										JOINT rightMiddleDistal
										{
											OFFSET -2.949997 0.000000 0.000000
											CHANNELS 3 Xrotation Yrotation Zrotation
											JOINT rightHandMiddle4
											{
												OFFSET -2.946594 0.000000 0.000000
												CHANNELS 3 Xrotation Yrotation Zrotation
												End Site
												{
													OFFSET -2.946602 0.000000 -0.000982
												}
											}
										}
									}
								}
								JOINT rightRingProximal
								{
									OFFSET -9.103600 -0.043106 -1.865100
									CHANNELS 6 Xposition Yposition Zposition Xrotation Yrotation Zrotation
									JOINT rightRingIntermediate
									{
										OFFSET -3.379303 0.000000 0.000000
										CHANNELS 3 Xrotation Yrotation Zrotation
										JOINT rightRingDistal
										{
											OFFSET -2.889694 0.000000 0.000000
											CHANNELS 3 Xrotation Yrotation Zrotation
											JOINT rightHandRing4
											{
												OFFSET -2.638802 0.000000 0.000000
												CHANNELS 3 Xrotation Yrotation Zrotation
												End Site
												{
													OFFSET -2.638802 0.000000 0.004218
												}
											}
										}
									}
								}
								JOINT rightLittleProximal
								{
									OFFSET -8.076698 -0.486725 -3.806299
									CHANNELS 6 Xposition Yposition Zposition Xrotation Yrotation Zrotation
									JOINT rightLittleIntermediate
									{
										OFFSET -3.600006 0.000000 0.000000
										CHANNELS 3 Xrotation Yrotation Zrotation
										JOINT rightLittleDistal
										{
											OFFSET -2.099998 0.000000 0.000000
											CHANNELS 3 Xrotation Yrotation Zrotation
											JOINT rightHandPinky4
											{
												OFFSET -2.115791 0.000000 0.000000
												CHANNELS 3 Xrotation Yrotation Zrotation
												End Site
												{
													OFFSET -2.115799 0.000000 0.000174
												}
											}
										}
									}
								}
							}
						}
					}
				}
				JOINT leftShoulder
				{
					OFFSET 4.570400 11.014679 -2.160816
					CHANNELS 6 Xposition Yposition Zposition Xrotation Yrotation Zrotation
					JOINT leftUpperArm
					{
						OFFSET 10.592373 -0.524597 -2.232116
						CHANNELS 3 Xrotation Yrotation Zrotation
						JOINT leftLowerArm
						{
							OFFSET 27.841488 0.000000 0.000001
							CHANNELS 3 Xrotation Yrotation Zrotation
							JOINT leftHand
							{
								OFFSET 28.328808 0.000000 -0.000000
								CHANNELS 3 Xrotation Yrotation Zrotation
								JOINT leftThumbProximal
								{
									OFFSET 2.466103 -1.576202 2.681698
									CHANNELS 6 Xposition Yposition Zposition Xrotation Yrotation Zrotation
									JOINT leftThumbIntermediate
									{
										OFFSET 3.243317 -1.872528 1.872530
										CHANNELS 3 Xrotation Yrotation Zrotation
										JOINT leftThumbDistal
										{
											OFFSET 2.647881 -1.528763 1.528754
											CHANNELS 6 Xposition Yposition Zposition Xrotation Yrotation Zrotation
											JOINT leftHandThumb4
											{
												OFFSET 1.998924 -1.154083 1.154080
												CHANNELS 6 Xposition Yposition Zposition Xrotation Yrotation Zrotation
												End Site
												{
													OFFSET 1.884041 -1.149155 1.337651
												}
											}
										}
									}
								}
								JOINT leftIndexProximal
								{
									OFFSET 9.109299 -0.518005 2.259900
									CHANNELS 6 Xposition Yposition Zposition Xrotation Yrotation Zrotation
									JOINT leftIndexIntermediate
									{
										OFFSET 3.699997 0.000000 0.000000
										CHANNELS 3 Xrotation Yrotation Zrotation
										JOINT leftIndexDistal
										{
											OFFSET 2.850006 0.000000 0.000000
											CHANNELS 3 Xrotation Yrotation Zrotation
											JOINT leftHandIndex4
											{
												OFFSET 2.774895 0.000000 0.000000
												CHANNELS 3 Xrotation Yrotation Zrotation
												End Site
												{
													OFFSET 2.774902 0.000000 -0.000072
												}
											}
										}
									}
								}
								JOINT leftMiddleProximal
								{
									OFFSET 9.533401 0.000000 0.000000
									CHANNELS 6 Xposition Yposition Zposition Xrotation Yrotation Zrotation
									JOINT leftMiddleIntermediate
									{
										OFFSET 3.699997 0.000000 0.000000
										CHANNELS 3 Xrotation Yrotation Zrotation
										JOINT leftMiddleDistal
										{
											OFFSET 2.949997 0.000000 0.000000
											CHANNELS 3 Xrotation Yrotation Zrotation
											JOINT leftHandMiddle4
											{
												OFFSET 2.952896 0.000000 0.000000
												CHANNELS 3 Xrotation Yrotation Zrotation
												End Site
												{
													OFFSET 2.952904 0.000000 0.000165
												}
											}
										}
									}
								}
								JOINT leftRingProximal
								{
									OFFSET 9.104500 -0.042999 -1.865101
									CHANNELS 6 Xposition Yposition Zposition Xrotation Yrotation Zrotation
									JOINT leftRingIntermediate
									{
										OFFSET 3.149994 0.000000 0.000000
										CHANNELS 3 Xrotation Yrotation Zrotation
										JOINT leftRingDistal
										{
											OFFSET 2.950005 0.000000 0.000000
											CHANNELS 3 Xrotation Yrotation Zrotation
											JOINT leftHandRing4
											{
												OFFSET 2.644302 0.000000 0.000000
												CHANNELS 3 Xrotation Yrotation Zrotation
												End Site
												{
													OFFSET 2.644302 0.000000 0.000083
												}
											}
										}
									}
								}
								JOINT leftLittleProximal
								{
									OFFSET 8.077805 -0.486893 -3.806302
									CHANNELS 6 Xposition Yposition Zposition Xrotation Yrotation Zrotation
									JOINT leftLittleIntermediate
									{
										OFFSET 3.600006 0.000000 0.000000
										CHANNELS 3 Xrotation Yrotation Zrotation
										JOINT leftLittleDistal
										{
											OFFSET 2.099998 0.000000 0.000000
											CHANNELS 3 Xrotation Yrotation Zrotation
											JOINT leftHandPinky4
											{
												OFFSET 2.125496 0.000000 0.000000
												CHANNELS 3 Xrotation Yrotation Zrotation
												End Site
												{
													OFFSET 2.125504 0.000000 -0.001254
												}
											}
										}
									}
								}
							}
						}
					}
				}
			}
		}
	}
	JOINT rightUpperLeg
	{
		OFFSET -8.207800 -6.751701 -1.599544
		CHANNELS 6 Xposition Yposition Zposition Xrotation Yrotation Zrotation
		JOINT rightLowerLeg
		{
			OFFSET 0.000004 -44.370152 0.345934
			CHANNELS 3 Xrotation Yrotation Zrotation
			JOINT rightFoot
			{
				OFFSET 0.000004 -44.423664 -3.043535
				CHANNELS 3 Xrotation Yrotation Zrotation
				JOINT rightToes
				{
					OFFSET 0.000001 -8.728691 10.710592
					CHANNELS 3 Xrotation Yrotation Zrotation
					JOINT rightToesEnd
					{
						OFFSET 0.000000 -0.000665 9.278101
						CHANNELS 3 Xrotation Yrotation Zrotation
						End Site
						{
							OFFSET 0.000000 -0.000665 9.278103
						}
					}
				}
			}
		}
	}
	JOINT leftUpperLeg
	{
		OFFSET 8.207800 -6.751701 -1.599544
		CHANNELS 6 Xposition Yposition Zposition Xrotation Yrotation Zrotation
		JOINT leftLowerLeg
		{
			OFFSET 0.000004 -44.370037 0.346940
			CHANNELS 3 Xrotation Yrotation Zrotation
			JOINT leftFoot
			{
				OFFSET 0.000004 -44.423611 -3.044388
				CHANNELS 3 Xrotation Yrotation Zrotation
				JOINT leftToes
				{
					OFFSET 0.000001 -8.728690 10.710592
					CHANNELS 3 Xrotation Yrotation Zrotation
					JOINT leftToesEnd
					{
						OFFSET 0.000000 -0.000680 9.278101
						CHANNELS 3 Xrotation Yrotation Zrotation
						End Site
						{
							OFFSET 0.000000 -0.000680 9.278101
						}
					}
				}
			}
		}
	}
}
MOTION
Frames: 4
Frame Time: 0.033333
0.023555 100.484032 1.941615 -3.496264 -0.620181 0.161627 -0.000000 10.181548 0.131525 -0.973303 0.451166 -1.282466 0.799744 0.062457 0.497767 0.799003 0.063488 0.498400 -0.000000 16.740381 -2.049023 -6.708122 0.487507 -0.869351 0.000001 9.617839 1.684974 0.723343 1.128466 -1.970276 -0.000000 22.037369 7.501078 0.000000 0.000000 0.000000 -4.570000 11.014886 -2.160844 2.462540 11.149720 5.065136 12.317158 26.908507 54.328192 -0.000006 6.445445 0.000011 -6.498336 6.469527 2.563640 -2.464803 -1.573999 2.681911 -2.048911 -12.558904 -8.004039 5.443083 -17.651227 -0.837816 -2.646268 -1.527815 1.527815 -0.473915 -8.858976 -3.028543 -1.994590 -1.151583 1.151573 -0.000000 -0.000001 -0.000000 -9.108312 -0.517884 2.259807 0.136313 -1.372813 11.340893 0.123755 -1.308677 10.804202 0.117720 -1.276545 10.535884 0.000006 -0.000001 0.000001 -9.532505 0.000005 0.000001 0.298441 -2.019024 16.814491 0.288281 -1.985172 16.524282 0.272568 -1.931396 16.063876 -0.000001 -0.000000 -0.000000 -9.103611 -0.043107 -1.865100 0.591303 -2.810626 23.756361 0.580808 -2.786745 23.541915 0.554386 -2.725329 22.992119 0.000001 0.000002 0.000002 -8.076705 -0.486722 -3.806299 0.905090 -3.435427 29.511308 0.867520 -3.368305 28.878176 0.849017 -3.334587 28.561672 -0.000002 0.000002 0.000003 4.570401 11.014696 -2.160817 3.457160 -8.047712 -5.932915 1.815350 -0.778072 -64.928550 0.000012 -8.820208 0.000017 14.438079 3.149609 6.685267 2.466093 -1.576204 2.681699 -1.709198 11.927800 7.384736 4.614786 16.216790 1.362186 2.647882 -1.528769 1.528748 0.156758 9.826683 3.328267 1.998922 -1.154090 1.154077 -0.000000 0.000003 -0.000002 9.109299 -0.518019 2.259901 0.018883 0.510676 -4.235650 0.046200 0.798106 -6.628484 0.064367 0.941322 -7.824987 -0.000001 0.000001 0.000002 9.533398 0.000007 0.000001 0.038253 0.726337 -6.030156 0.076597 1.026367 -8.537205 0.098567 1.163365 -9.687337 0.000005 0.000000 -0.000000 9.104494 -0.042991 -1.865099 0.073181 1.003358 -8.344370 0.123744 1.302192 -10.857060 0.151065 1.437335 -12.000167 0.000001 -0.000001 0.000001 8.077811 -0.486901 -3.806302 0.816420 5.222865 -9.780153 0.163182 -2.542507 -13.143111 0.200731 1.653794 -13.841841 0.000001 0.000000 0.000001 -8.207800 -6.751719 -1.599543 -9.056746 -12.731676 -1.188451 28.509317 -9.777357 -3.775437 -16.130743 -3.671323 4.610266 -0.000039 -0.000007 0.000003 -0.000000 0.000000 0.000000 8.207800 -6.751707 -1.599545 -9.956935 7.795841 0.317940 29.157879 -3.498245 -1.142545 -15.675945 -0.598490 3.351465 -0.000278 -0.000001 -0.000000 -0.000000 0.000000 0.000000 
0.117299 100.511360 1.891169 -3.697648 -0.614384 0.173281 0.000000 10.181559 0.131522 -0.821802 0.184206 -0.903325 0.917351 0.023975 0.204276 0.917019 0.025215 0.204307 -0.000000 16.740355 -2.049018 -6.942738 0.509057 -0.699467 -0.000001 9.617882 1.684972 0.737041 1.469124 -1.822740 -0.000000 22.037369 7.501082 -0.000000 0.000000 0.000000 -4.569999 11.014868 -2.160840 2.384596 10.629860 4.973922 10.713974 27.871832 54.786822 -0.000005 5.473743 0.000002 -7.368181 7.007763 2.911274 -2.464793 -1.573992 2.681912 -2.048915 -12.558908 -8.004024 5.443085 -17.651229 -0.837812 -2.646276 -1.527813 1.527815 -0.473915 -8.858976 -3.028543 -1.994590 -1.151570 1.151576 0.000002 -0.000001 -0.000000 -9.108294 -0.517879 2.259805 0.133695 -1.359739 11.231417 0.122521 -1.302110 10.749493 0.117085 -1.273277 10.508531 0.000002 0.000000 0.000001 -9.532484 0.000008 0.000003 0.294411 -2.005648 16.699794 0.286232 -1.978261 16.465044 0.271617 -1.928060 16.035428 0.000003 0.000001 0.000001 -9.103600 -0.043107 -1.865098 0.585315 -2.797012 23.634121 0.577753 -2.779723 23.478821 0.552940 -2.721929 22.961798 0.000002 0.000001 0.000003 -8.076699 -0.486725 -3.806295 0.897354 -3.421769 29.382162 0.863734 -3.361441 28.813607 0.847134 -3.331142 28.529386 0.000001 0.000002 0.000001 4.570402 11.014688 -2.160817 3.537048 -8.337693 -5.795754 1.588841 0.342585 -65.091634 -0.000014 -8.480982 0.000003 14.841711 2.397497 7.485001 2.466093 -1.576205 2.681702 -1.709195 11.927799 7.384736 4.614788 16.216788 1.362181 2.647892 -1.528752 1.528749 0.156759 9.826688 3.328266 1.998924 -1.154093 1.154079 0.000000 0.000004 0.000003 9.109294 -0.518008 2.259897 0.020063 0.526428 -4.366402 0.047112 0.805940 -6.693854 0.064912 0.945221 -7.857695 -0.000001 0.000001 0.000001 9.533405 0.000001 -0.000001 0.039910 0.741929 -6.160018 0.077802 1.034376 -8.604261 0.099229 1.167194 -9.719556 -0.000000 0.000000 -0.000000 9.104499 -0.042993 -1.865103 0.075469 1.018864 -8.474262 0.125272 1.310142 -10.924164 0.151875 1.441142 -12.032399 0.000001 0.000000 -0.000000 8.077795 -0.486891 -3.806302 0.828401 5.236782 -9.911661 0.164970 -2.534835 -13.208402 0.201682 1.657632 -13.874553 0.000001 -0.000000 0.000001 -8.207801 -6.751704 -1.599540 -8.848706 -12.697808 -1.201294 28.411051 -9.794992 -3.852120 -16.041007 -3.617631 4.683609 -0.000024 0.000003 0.000003 -0.000000 0.000000 0.000000 8.207798 -6.751688 -1.599545 -9.684021 8.008222 0.385649 29.007192 -3.687681 -1.354521 -15.595340 -0.627581 3.562808 -0.000269 -0.000002 -0.000001 -0.000000 0.000000 0.000000 
0.226700 100.560112 1.793482 -3.960215 -0.603359 0.255248 -0.000000 10.181544 0.131525 -0.410122 -0.355980 -0.507350 0.962087 -0.051417 -0.077719 0.962056 -0.050211 -0.078500 -0.000000 16.740383 -2.049022 -7.272170 0.677338 -0.699589 -0.000001 9.617854 1.684971 0.712087 2.240409 -1.749589 0.000000 22.037354 7.501070 -0.000001 0.000000 -0.000000 -4.570001 11.014872 -2.160840 2.285834 9.907651 4.561896 8.141541 30.016223 55.423181 -0.000002 5.393325 0.000005 -7.330546 8.165774 4.107932 -2.464794 -1.573991 2.681911 -2.048911 -12.558902 -8.004020 5.443088 -17.651231 -0.837811 -2.646292 -1.527801 1.527819 -0.473912 -8.858976 -3.028540 -1.994595 -1.151581 1.151579 -0.000002 -0.000004 0.000005 -9.108308 -0.517882 2.259801 0.128635 -1.333922 11.015476 0.120064 -1.289206 10.641516 0.115897 -1.266795 10.454551 0.000002 -0.000000 0.000000 -9.532500 0.000007 -0.000000 0.286544 -1.979251 16.473503 0.282214 -1.964619 16.348227 0.269733 -1.921487 15.979335 -0.000000 -0.000000 -0.000000 -9.103588 -0.043104 -1.865103 0.573594 -2.770140 23.393024 0.571742 -2.765821 23.354350 0.550093 -2.715235 22.902008 0.000002 -0.000002 0.000004 -8.076704 -0.486733 -3.806302 0.882212 -3.394767 29.127400 0.856273 -3.347872 28.686262 0.843451 -3.324351 28.465717 -0.000001 -0.000001 0.000003 4.570399 11.014691 -2.160815 3.719404 -8.922477 -6.023007 2.110203 1.311880 -64.409394 0.000020 -8.287398 0.000027 15.438386 1.398377 8.004854 2.466095 -1.576206 2.681697 -1.709194 11.927803 7.384742 4.614788 16.216790 1.362183 2.647892 -1.528741 1.528752 0.156761 9.826687 3.328266 1.998921 -1.154093 1.154073 0.000001 0.000001 0.000001 9.109292 -0.518012 2.259901 0.017838 0.496312 -4.116169 0.045368 0.790949 -6.568729 0.063876 0.937745 -7.795109 0.000001 -0.000001 -0.000001 9.533407 0.000001 0.000001 0.036757 0.712096 -5.911372 0.075502 1.019073 -8.475981 0.097985 1.159860 -9.657897 0.000002 0.000000 0.000001 9.104501 -0.042995 -1.865102 0.071118 0.989175 -8.225595 0.122341 1.294947 -10.795803 0.150327 1.433867 -11.970746 0.000001 0.000000 0.000000 8.077806 -0.486898 -3.806299 0.805493 5.210152 -9.659991 0.161529 -2.549528 -13.083460 0.199883 1.650302 -13.811960 0.000003 0.000001 -0.000000 -8.207800 -6.751713 -1.599543 -8.612248 -12.640727 -1.259295 28.265360 -9.818467 -3.992225 -15.891408 -3.554048 4.783543 -0.000059 0.000003 0.000003 -0.000000 0.000002 0.000000 8.207801 -6.751707 -1.599542 -9.300149 8.294666 0.433053 28.707374 -3.972786 -1.684213 -15.405777 -0.673461 3.866003 -0.000246 -0.000001 -0.000000 -0.000000 0.000000 0.000000 
0.338358 100.580246 1.654827 -4.168090 -0.742075 0.506791 0.000000 10.181543 0.131525 0.198601 -1.134376 -0.110364 0.916439 -0.157589 -0.383145 0.915910 -0.157119 -0.384689 -0.000000 16.740385 -2.049020 -7.634722 1.032227 -0.918657 -0.000001 9.617863 1.684964 0.539800 3.551657 -1.724707 -0.000001 22.037384 7.501065 -0.000000 0.000000 0.000000 -4.570002 11.014872 -2.160841 2.182454 9.188194 3.852491 6.083556 32.835820 55.554204 -0.000004 7.569062 0.000013 -5.876025 8.773550 4.979324 -2.464794 -1.574005 2.681913 -2.048904 -12.558897 -8.004030 5.443087 -17.651229 -0.837811 -2.646277 -1.527803 1.527821 -0.473915 -8.858982 -3.028549 -1.994602 -1.151580 1.151582 -0.000000 -0.000000 0.000005 -9.108276 -0.517884 2.259805 0.124995 -1.315106 10.858106 0.118306 -1.279761 10.562834 0.115030 -1.262092 10.415199 0.000001 0.000001 0.000001 -9.532495 0.000006 0.000003 0.280870 -1.959989 16.308607 0.279320 -1.954680 16.263097 0.268347 -1.916696 15.938414 0.000001 0.000002 0.000002 -9.103598 -0.043101 -1.865101 0.565141 -2.750512 23.217299 0.567354 -2.755692 23.263655 0.548046 -2.710370 22.858428 0.000001 -0.000002 -0.000001 -8.076683 -0.486722 -3.806298 0.871248 -3.375052 28.941769 0.850877 -3.337972 28.593463 0.840742 -3.319382 28.419290 0.000002 -0.000004 -0.000000 4.570399 11.014688 -2.160815 3.962255 -9.721348 -6.595423 3.757410 1.857383 -62.723663 0.000008 -8.219153 0.000016 16.502441 0.258036 7.670367 2.466108 -1.576219 2.681700 -1.709193 11.927801 7.384736 4.614789 16.216792 1.362185 2.647898 -1.528736 1.528746 0.156759 9.826682 3.328264 1.998925 -1.154095 1.154070 -0.000000 0.000001 -0.000000 9.109286 -0.518015 2.259900 0.013898 0.438201 -3.633581 0.042098 0.762013 -6.327411 0.061926 0.923315 -7.674446 -0.000001 0.000001 0.000001 9.533407 0.000006 -0.000002 0.031049 0.654514 -5.431927 0.071166 0.989516 -8.228465 0.095567 1.145724 -9.538995 0.000001 -0.000001 0.000000 9.104510 -0.042995 -1.865101 0.063079 0.931870 -7.746065 0.116826 1.265605 -10.548258 0.147370 1.419829 -11.851790 -0.000001 0.000000 0.000000 8.077805 -0.486897 -3.806303 0.761634 5.158508 -9.174705 0.154995 -2.577904 -12.842456 0.196419 1.636155 -13.691216 0.000002 0.000001 0.000000 -8.207800 -6.751719 -1.599542 -8.651576 -12.507493 -1.490290 28.355264 -9.826378 -4.237265 -15.806419 -3.429686 4.950433 -0.000020 0.000007 0.000001 -0.000000 0.000000 0.000000 8.207801 -6.751715 -1.599542 -8.960395 8.527380 0.282207 28.403712 -3.969779 -2.075214 -15.205524 -0.715332 4.150896 -0.000245 0.000001 -0.000000 -0.000000 -0.000000 0.000000 
